<?xml version="1.0" encoding="UTF-8" standalone="no"?>
<svg
   viewBox="0 0 24 24"
   fill="none"
   stroke="currentColor"
   stroke-width="2"
   stroke-linecap="round"
   stroke-linejoin="round"
   aria-hidden="true"
   version="1.1"
   id="svg2"
   sodipodi:docname="headphone.svg"
   inkscape:version="1.4.3 (0d15f75, 2025-12-25)"
   xmlns:inkscape="http://www.inkscape.org/namespaces/inkscape"
   xmlns:sodipodi="http://sodipodi.sourceforge.net/DTD/sodipodi-0.dtd"
   xmlns="http://www.w3.org/2000/svg"
   xmlns:svg="http://www.w3.org/2000/svg">
  <defs
     id="defs2">
    <inkscape:path-effect
       effect="mirror_symmetry"
       start_point="12,-0.5"
       end_point="12,23.5"
       center_point="12,11.5"
       id="path-effect3"
       is_visible="true"
       lpeversion="1.2"
       lpesatellites=""
       mode="vertical"
       discard_orig_path="false"
       fuse_paths="false"
       oposite_fuse="false"
       split_items="false"
       split_open="false"
       link_styles="false" />
    <inkscape:path-effect
       effect="mirror_symmetry"
       start_point="12,-0.5"
       end_point="12,23.5"
       center_point="12,11.5"
       id="path-effect2"
       is_visible="true"
       lpeversion="1.2"
       lpesatellites=""
       mode="vertical"
       discard_orig_path="false"
       fuse_paths="false"
       oposite_fuse="false"
       split_items="false"
       split_open="false"
       link_styles="false" />
  </defs>
  <sodipodi:namedview
     id="namedview2"
     pagecolor="#ffffff"
     bordercolor="#000000"
     borderopacity="0.25"
     inkscape:showpageshadow="2"
     inkscape:pageopacity="0.0"
     inkscape:pagecheckerboard="0"
     inkscape:deskcolor="#d1d1d1"
     inkscape:zoom="77.833333"
     inkscape:cx="10.432548"
     inkscape:cy="11.473233"
     inkscape:window-width="3840"
     inkscape:window-height="2126"
     inkscape:window-x="-11"
     inkscape:window-y="1083"
     inkscape:window-maximized="1"
     inkscape:current-layer="g2" />
  <g
     transform="translate(0 0.5)"
     id="g2">
    <path
       d="M 4.4413276,13.486081 V 11.012848 C 4.4413276,9.0151271 4.7195993,6.2254574 6.8736617,4.6 9.0277242,2.9745426 10.556745,3.0194296 11.905782,3 m 7.65289,10.486081 V 11.012848 C 19.558672,9.0151271 19.280401,6.2254574 17.126338,4.6 14.972276,2.9745426 13.443255,3.0194296 12.094218,3"
       id="path1"
       sodipodi:nodetypes="cszc"
       inkscape:path-effect="#path-effect2"
       inkscape:original-d="M 4.4413276,13.486081 V 11.012848 C 4.4413276,9.0151271 4.7195993,6.2254574 6.8736617,4.6 9.0277242,2.9745426 10.556745,3.0194296 11.905782,3" />
    <path
       x="2.5"
       y="13.5"
       width="4"
       height="6.5"
       rx="1.6"
       id="rect1"
       inkscape:path-effect="#path-effect3"
       sodipodi:type="rect"
       d="m 4.1,13.5 h 0.8 c 0.8864,0 1.6,0.7136 1.6,1.6 v 3.3 C 6.5,19.2864 5.7864,20 4.9,20 H 4.1 C 3.2136,20 2.5,19.2864 2.5,18.4 v -3.3 c 0,-0.8864 0.7136,-1.6 1.6,-1.6 z m 15.8,0 h -0.8 c -0.8864,0 -1.6,0.7136 -1.6,1.6 v 3.3 c 0,0.8864 0.7136,1.6 1.6,1.6 h 0.8 c 0.8864,0 1.6,-0.7136 1.6,-1.6 v -3.3 c 0,-0.8864 -0.7136,-1.6 -1.6,-1.6 z" />
  </g>
</svg>
